<!-- Generated by graphviz version 2.42.4 (0)
 -->
<!-- Title: G Pages: 1 -->
<svg width="1841pt" height="835pt"
 viewBox="0.00 0.00 1841.00 835.00" xmlns="http://www.w3.org/2000/svg" xmlns:xlink="http://www.w3.org/1999/xlink">
<g id="graph0" class="graph" transform="scale(1 1) rotate(0) translate(4 831)">
<title>G</title>
<polygon fill="white" stroke="transparent" points="-4,4 -4,-831 1837,-831 1837,4 -4,4"/>
<!-- event -->
<g id="node1" class="node">
<title>event</title>
<g id="a_node1"><a xlink:href="/apis/apis_ontology.event/" xlink:title="event">
<polygon fill="#3399ff" stroke="black" points="567,-158.5 567,-194.5 623,-194.5 623,-158.5 567,-158.5"/>
<text text-anchor="middle" x="595" y="-172.8" font-family="Times,serif" font-size="14.00">event</text>
</a>
</g>
</g>
<!-- place -->
<g id="node5" class="node">
<title>place</title>
<g id="a_node5"><a xlink:href="/apis/apis_ontology.place/" xlink:title="place">
<polygon fill="#3399ff" stroke="black" points="257,-0.5 257,-36.5 311,-36.5 311,-0.5 257,-0.5"/>
<text text-anchor="middle" x="284" y="-14.8" font-family="Times,serif" font-size="14.00">place</text>
</a>
</g>
</g>
<!-- event&#45;&gt;place -->
<g id="edge13" class="edge">
<title>event&#45;&gt;place</title>
<path fill="none" stroke="black" d="M567.71,-158.27C551.78,-148.23 531.28,-135.35 513,-124 476.22,-101.15 468.97,-91.88 430,-73 393.98,-55.55 350.72,-40.37 320.68,-30.68"/>
<polygon fill="black" stroke="black" points="321.62,-27.31 311.03,-27.61 319.5,-33.98 321.62,-27.31"/>
<text text-anchor="middle" x="505" y="-76.8" font-family="Times,serif" font-size="14.00">findet statt in</text>
</g>
<!-- function -->
<g id="node2" class="node">
<title>function</title>
<g id="a_node2"><a xlink:href="/apis/apis_ontology.function/" xlink:title="function">
<polygon fill="#3399ff" stroke="black" points="1140.5,-779 1140.5,-815 1215.5,-815 1215.5,-779 1140.5,-779"/>
<text text-anchor="middle" x="1178" y="-793.3" font-family="Times,serif" font-size="14.00">function</text>
</a>
</g>
</g>
<!-- function&#45;&gt;function -->
<g id="edge11" class="edge">
<title>function&#45;&gt;function</title>
<path fill="none" stroke="black" d="M1215.59,-808.01C1250.2,-813.54 1287.5,-809.87 1287.5,-797 1287.5,-785.39 1257.13,-781.27 1225.77,-784.64"/>
<polygon fill="black" stroke="black" points="1225.04,-781.2 1215.59,-785.99 1225.96,-788.14 1225.04,-781.2"/>
<text text-anchor="middle" x="1409" y="-815.8" font-family="Times,serif" font-size="14.00">ging hervor aus</text>
<text text-anchor="middle" x="1409" y="-800.8" font-family="Times,serif" font-size="14.00">ist untergeordnet</text>
<text text-anchor="middle" x="1409" y="-785.8" font-family="Times,serif" font-size="14.00">ist verbunden mit</text>
<text text-anchor="middle" x="1409" y="-770.8" font-family="Times,serif" font-size="14.00">ist möglicherweise spezifiziert als</text>
</g>
<!-- institution -->
<g id="node3" class="node">
<title>institution</title>
<g id="a_node3"><a xlink:href="/apis/apis_ontology.institution/" xlink:title="institution">
<polygon fill="#3399ff" stroke="black" points="753.5,-643.5 753.5,-679.5 844.5,-679.5 844.5,-643.5 753.5,-643.5"/>
<text text-anchor="middle" x="799" y="-657.8" font-family="Times,serif" font-size="14.00">institution</text>
</a>
</g>
</g>
<!-- function&#45;&gt;institution -->
<g id="edge6" class="edge">
<title>function&#45;&gt;institution</title>
<path fill="none" stroke="black" d="M1140.27,-782.71C1073.12,-759.06 932.58,-709.55 854.43,-682.02"/>
<polygon fill="black" stroke="black" points="855.35,-678.64 844.75,-678.62 853.02,-685.24 855.35,-678.64"/>
<text text-anchor="middle" x="1008" y="-719.8" font-family="Times,serif" font-size="14.00">ist an</text>
</g>
<!-- person -->
<g id="node4" class="node">
<title>person</title>
<g id="a_node4"><a xlink:href="/apis/apis_ontology.person/" xlink:title="person">
<polygon fill="#3399ff" stroke="black" points="734.5,-410.5 734.5,-446.5 799.5,-446.5 799.5,-410.5 734.5,-410.5"/>
<text text-anchor="middle" x="767" y="-424.8" font-family="Times,serif" font-size="14.00">person</text>
</a>
</g>
</g>
<!-- function&#45;&gt;person -->
<g id="edge7" class="edge">
<title>function&#45;&gt;person</title>
<path fill="none" stroke="black" d="M1168.61,-778.97C1151.62,-749.13 1113.47,-686.43 1070,-643 987.08,-560.15 868.76,-487.11 807.4,-451.87"/>
<polygon fill="black" stroke="black" points="808.83,-448.66 798.41,-446.74 805.36,-454.74 808.83,-448.66"/>
<text text-anchor="middle" x="1168.5" y="-657.8" font-family="Times,serif" font-size="14.00">wird ausgeübt von</text>
</g>
<!-- function&#45;&gt;place -->
<g id="edge15" class="edge">
<title>function&#45;&gt;place</title>
<path fill="none" stroke="black" d="M1140.47,-795.78C939.53,-794.13 0,-780.14 0,-662.5 0,-662.5 0,-662.5 0,-175.5 0,-64.28 169.38,-31.81 246.52,-22.78"/>
<polygon fill="black" stroke="black" points="247.21,-26.23 256.77,-21.66 246.45,-19.27 247.21,-26.23"/>
<text text-anchor="middle" x="42.5" y="-424.8" font-family="Times,serif" font-size="14.00">ausgeübt in</text>
</g>
<!-- salary -->
<g id="node6" class="node">
<title>salary</title>
<g id="a_node6"><a xlink:href="/apis/apis_ontology.salary/" xlink:title="salary">
<polygon fill="#3399ff" stroke="black" points="1244,-0.5 1244,-36.5 1304,-36.5 1304,-0.5 1244,-0.5"/>
<text text-anchor="middle" x="1274" y="-14.8" font-family="Times,serif" font-size="14.00">salary</text>
</a>
</g>
</g>
<!-- function&#45;&gt;salary -->
<g id="edge18" class="edge">
<title>function&#45;&gt;salary</title>
<path fill="none" stroke="black" d="M1215.76,-794.74C1337.99,-789.63 1715,-765.53 1715,-662.5 1715,-662.5 1715,-662.5 1715,-175.5 1715,-90.93 1423.08,-40.71 1314.26,-24.92"/>
<polygon fill="black" stroke="black" points="1314.71,-21.45 1304.31,-23.5 1313.72,-28.38 1314.71,-21.45"/>
<text text-anchor="middle" x="1774" y="-432.3" font-family="Times,serif" font-size="14.00">führt durch</text>
<text text-anchor="middle" x="1774" y="-417.3" font-family="Times,serif" font-size="14.00">nimmt entgegen</text>
</g>
<!-- institution&#45;&gt;institution -->
<g id="edge17" class="edge">
<title>institution&#45;&gt;institution</title>
<path fill="none" stroke="black" d="M844.52,-671.59C880.1,-675.43 916.5,-672.07 916.5,-661.5 916.5,-651.93 886.61,-648.26 854.52,-650.52"/>
<polygon fill="black" stroke="black" points="854.18,-647.04 844.52,-651.41 854.8,-654.01 854.18,-647.04"/>
<text text-anchor="middle" x="1002" y="-665.3" font-family="Times,serif" font-size="14.00">gehört zu</text>
<text text-anchor="middle" x="1002" y="-650.3" font-family="Times,serif" font-size="14.00">steht in Verbindung mit</text>
</g>
<!-- institution&#45;&gt;person -->
<g id="edge16" class="edge">
<title>institution&#45;&gt;person</title>
<path fill="none" stroke="black" d="M753.38,-657.87C718.19,-653.16 671.67,-640.5 648,-607 609.32,-552.26 684.49,-486.39 732.09,-452.35"/>
<polygon fill="black" stroke="black" points="734.15,-455.18 740.34,-446.58 730.14,-449.45 734.15,-455.18"/>
<text text-anchor="middle" x="709.5" y="-580.8" font-family="Times,serif" font-size="14.00">ist verpfändet an</text>
</g>
<!-- institution&#45;&gt;place -->
<g id="edge12" class="edge">
<title>institution&#45;&gt;place</title>
<path fill="none" stroke="black" d="M753.25,-653.99C715.06,-646.96 660.37,-633.07 619,-607 460.87,-507.34 430.12,-457.07 337,-295 290.22,-213.58 283.84,-98.55 283.54,-46.7"/>
<polygon fill="black" stroke="black" points="287.04,-46.64 283.56,-36.64 280.04,-46.63 287.04,-46.64"/>
<text text-anchor="middle" x="385.5" y="-276.3" font-family="Times,serif" font-size="14.00">ist gelegen in</text>
</g>
<!-- institution&#45;&gt;salary -->
<g id="edge9" class="edge">
<title>institution&#45;&gt;salary</title>
<path fill="none" stroke="black" d="M844.5,-650.25C906.95,-634 1019.17,-596.67 1087,-526 1224.28,-382.97 1262.37,-130.55 1271.46,-47.12"/>
<polygon fill="black" stroke="black" points="1274.96,-47.24 1272.51,-36.93 1268,-46.52 1274.96,-47.24"/>
<text text-anchor="middle" x="1267" y="-283.8" font-family="Times,serif" font-size="14.00">führt durch</text>
<text text-anchor="middle" x="1267" y="-268.8" font-family="Times,serif" font-size="14.00">weist an</text>
</g>
<!-- person&#45;&gt;event -->
<g id="edge4" class="edge">
<title>person&#45;&gt;event</title>
<path fill="none" stroke="black" d="M737.23,-410.45C701.93,-388.55 644.2,-347.06 615,-295 599.3,-267.02 595.28,-229.83 594.55,-204.85"/>
<polygon fill="black" stroke="black" points="598.05,-204.58 594.42,-194.63 591.05,-204.68 598.05,-204.58"/>
<text text-anchor="middle" x="663.5" y="-276.3" font-family="Times,serif" font-size="14.00">nimmt teil an</text>
</g>
<!-- person&#45;&gt;institution -->
<g id="edge3" class="edge">
<title>person&#45;&gt;institution</title>
<path fill="none" stroke="black" d="M770.2,-446.6C774.82,-471.79 783.44,-520.4 789,-562 792.21,-586.01 794.91,-613.43 796.7,-633.23"/>
<polygon fill="black" stroke="black" points="793.23,-633.72 797.59,-643.38 800.2,-633.11 793.23,-633.72"/>
<text text-anchor="middle" x="857" y="-595.8" font-family="Times,serif" font-size="14.00">ist Mitglied von</text>
<text text-anchor="middle" x="857" y="-580.8" font-family="Times,serif" font-size="14.00">ist tätig an</text>
<text text-anchor="middle" x="857" y="-565.8" font-family="Times,serif" font-size="14.00">ist Pfründner von</text>
</g>
<!-- person&#45;&gt;person -->
<g id="edge2" class="edge">
<title>person&#45;&gt;person</title>
<path fill="none" stroke="black" d="M791.92,-446.6C827.48,-463.94 871.5,-457.91 871.5,-428.5 871.5,-401.62 834.72,-394.27 801.24,-406.45"/>
<polygon fill="black" stroke="black" points="799.76,-403.28 791.92,-410.4 802.5,-409.72 799.76,-403.28"/>
<text text-anchor="middle" x="988" y="-514.8" font-family="Times,serif" font-size="14.00">hat Korrespondenz mit</text>
<text text-anchor="middle" x="988" y="-499.8" font-family="Times,serif" font-size="14.00">hat Familienbeziehung zu</text>
<text text-anchor="middle" x="988" y="-484.8" font-family="Times,serif" font-size="14.00">hat Ehe mit</text>
<text text-anchor="middle" x="988" y="-469.8" font-family="Times,serif" font-size="14.00">empfiehlt</text>
<text text-anchor="middle" x="988" y="-454.8" font-family="Times,serif" font-size="14.00">hat Geschäftsbeziehung zu</text>
<text text-anchor="middle" x="988" y="-439.8" font-family="Times,serif" font-size="14.00">ist Bruder/Schwester von</text>
<text text-anchor="middle" x="988" y="-424.8" font-family="Times,serif" font-size="14.00">ist Kind von</text>
<text text-anchor="middle" x="988" y="-409.8" font-family="Times,serif" font-size="14.00">ist Vormund von</text>
<text text-anchor="middle" x="988" y="-394.8" font-family="Times,serif" font-size="14.00">ist im Dienst von</text>
<text text-anchor="middle" x="988" y="-379.8" font-family="Times,serif" font-size="14.00">verkauft Besitz an</text>
<text text-anchor="middle" x="988" y="-364.8" font-family="Times,serif" font-size="14.00">hat Streit mit</text>
<text text-anchor="middle" x="988" y="-349.8" font-family="Times,serif" font-size="14.00">bürgt für</text>
<text text-anchor="middle" x="988" y="-334.8" font-family="Times,serif" font-size="14.00">ist möglicherweise identisch mit</text>
</g>
<!-- person&#45;&gt;place -->
<g id="edge1" class="edge">
<title>person&#45;&gt;place</title>
<path fill="none" stroke="black" d="M734.47,-415.96C667.27,-390.82 511.09,-325.52 411,-229 354.31,-174.33 313.19,-89.15 294.77,-46.19"/>
<polygon fill="black" stroke="black" points="297.89,-44.57 290.78,-36.71 291.43,-47.29 297.89,-44.57"/>
<text text-anchor="middle" x="471" y="-217.8" font-family="Times,serif" font-size="14.00">bewohnt</text>
<text text-anchor="middle" x="471" y="-202.8" font-family="Times,serif" font-size="14.00">besitzt</text>
<text text-anchor="middle" x="471" y="-187.8" font-family="Times,serif" font-size="14.00">ist geboren in</text>
<text text-anchor="middle" x="471" y="-172.8" font-family="Times,serif" font-size="14.00">ist gestorben in</text>
<text text-anchor="middle" x="471" y="-157.8" font-family="Times,serif" font-size="14.00">ist tätig in</text>
<text text-anchor="middle" x="471" y="-142.8" font-family="Times,serif" font-size="14.00">hält sich auf in</text>
<text text-anchor="middle" x="471" y="-127.8" font-family="Times,serif" font-size="14.00">hat Heimatort in</text>
</g>
<!-- person&#45;&gt;salary -->
<g id="edge10" class="edge">
<title>person&#45;&gt;salary</title>
<path fill="none" stroke="black" d="M764.41,-410.23C757.76,-358.89 745.73,-205.67 824,-124 880.81,-64.72 1134.62,-33.42 1233.95,-23.26"/>
<polygon fill="black" stroke="black" points="1234.3,-26.74 1243.9,-22.26 1233.6,-19.78 1234.3,-26.74"/>
<text text-anchor="middle" x="883" y="-187.8" font-family="Times,serif" font-size="14.00">weist an</text>
<text text-anchor="middle" x="883" y="-172.8" font-family="Times,serif" font-size="14.00">führt durch</text>
<text text-anchor="middle" x="883" y="-157.8" font-family="Times,serif" font-size="14.00">nimmt entgegen</text>
</g>
<!-- place&#45;&gt;place -->
<g id="edge8" class="edge">
<title>place&#45;&gt;place</title>
<path fill="none" stroke="black" d="M311.11,-26.8C344.11,-33.16 383,-30.4 383,-18.5 383,-7.81 351.61,-4.49 321.3,-8.55"/>
<polygon fill="black" stroke="black" points="320.42,-5.14 311.11,-10.2 321.55,-12.05 320.42,-5.14"/>
<text text-anchor="middle" x="422.5" y="-14.8" font-family="Times,serif" font-size="14.00">ist Teil von</text>
</g>
<!-- salary&#45;&gt;function -->
<g id="edge14" class="edge">
<title>salary&#45;&gt;function</title>
<path fill="none" stroke="black" d="M1304.25,-34.54C1347.02,-58.18 1420,-108.36 1420,-175.5 1420,-662.5 1420,-662.5 1420,-662.5 1420,-750.42 1296.02,-780.88 1225.54,-791.08"/>
<polygon fill="black" stroke="black" points="1224.98,-787.63 1215.55,-792.45 1225.93,-794.56 1224.98,-787.63"/>
<text text-anchor="middle" x="1495.5" y="-432.3" font-family="Times,serif" font-size="14.00">wird ausbezahlt an</text>
<text text-anchor="middle" x="1495.5" y="-417.3" font-family="Times,serif" font-size="14.00">wird angewiesen von</text>
</g>
<!-- salary&#45;&gt;person -->
<g id="edge5" class="edge">
<title>salary&#45;&gt;person</title>
<path fill="none" stroke="black" d="M1243.75,-32.98C1204.81,-51 1135.88,-85.21 1083,-124 960.78,-213.66 837.37,-347.63 788.67,-402.6"/>
<polygon fill="black" stroke="black" points="785.76,-400.61 781.77,-410.43 791.01,-405.24 785.76,-400.61"/>
<text text-anchor="middle" x="1151" y="-172.8" font-family="Times,serif" font-size="14.00">wird ausbezahlt an</text>
</g>
</g>
</svg>
